<svg id="Layer_1" data-name="Layer 1" xmlns="http://www.w3.org/2000/svg" viewBox="0 0 153.23 208.85"><defs><style>.cls-1{fill:#1d1d1b;}</style></defs><rect class="cls-1" x="110.44" y="190.02" width="35.13" height="35.13" transform="translate(-160.68 127.74) rotate(-45)"/><path class="cls-1" d="M203.5,142.17l-13.43-68A63.23,63.23,0,0,0,65.9,75.56L52.5,142.17a54.64,54.64,0,0,0,42.62,64.47,55.25,55.25,0,0,0,10.93,1.12H150a54.73,54.73,0,0,0,53.55-65.59ZM161,155.85v37.58H95.07V155.91a24.69,24.69,0,0,1-11.28-20.74,25.81,25.81,0,0,1,.27-3.65l4.3-58A26,26,0,0,1,128,51.36a26,26,0,0,1,39.65,22.18l4.24,58,.26,3.59A24.71,24.71,0,0,1,161,155.85Z" transform="translate(-51.38 -23.58)"/><polygon class="cls-1" points="102.31 135.35 102.31 160.89 96.14 160.89 96.14 149.98 57.3 149.98 57.3 160.89 51.14 160.89 51.14 135.35 102.31 135.35"/></svg>